<svg width="700" height="320" viewBox="0 0 700 320" fill="none" xmlns="http://www.w3.org/2000/svg">
<g clip-path="url(#clip0_122_55)">
<mask id="mask0_122_55" style="mask-type:luminance" maskUnits="userSpaceOnUse" x="0" y="0" width="700" height="320">
<path d="M684 0H16C7.16344 0 0 7.16344 0 16V304C0 312.837 7.16344 320 16 320H684C692.837 320 700 312.837 700 304V16C700 7.16344 692.837 0 684 0Z" fill="white"/>
</mask>
<g mask="url(#mask0_122_55)">
<path d="M684 0H16C7.16344 0 0 7.16344 0 16V304C0 312.837 7.16344 320 16 320H684C692.837 320 700 312.837 700 304V16C700 7.16344 692.837 0 684 0Z" fill="url(#paint0_linear_122_55)"/>
<g opacity="0.72">
<path d="M397.523 100.69C371.553 74.4367 329.447 74.4367 303.477 100.69C277.508 126.943 277.508 169.508 303.477 195.761L341.564 234.262C346.499 239.252 354.509 239.243 359.445 234.254L362.288 231.38V181.295C362.268 181.302 362.248 181.31 362.228 181.317V226.191C362.228 232.708 357.003 237.99 350.557 237.99C344.111 237.99 338.886 232.708 338.886 226.191V181.271C325.328 176.394 315.621 163.306 315.621 147.927C315.621 128.386 331.292 112.545 350.621 112.545C369.951 112.545 385.621 128.386 385.621 147.927C385.621 148.067 385.621 148.208 385.619 148.348H385.621V207.792L397.523 195.761C423.492 169.508 423.492 126.943 397.523 100.69Z" fill="#141C27"/>
<path d="M362.228 155.562C360.145 159.747 355.702 162.638 350.557 162.638C345.412 162.638 340.969 159.747 338.886 155.562L338.886 226.191C338.886 232.708 344.111 237.99 350.557 237.99C357.003 237.99 362.228 232.708 362.228 226.191L362.228 155.562Z" fill="#141C27"/>
<path d="M360.329 148.28C360.329 153.738 355.953 158.162 350.554 158.162C345.155 158.162 340.779 153.738 340.779 148.28C340.779 142.822 345.155 138.398 350.554 138.398C355.953 138.398 360.329 142.822 360.329 148.28Z" fill="#141C27"/>
</g>
<g opacity="0.8" filter="url(#filter0_f_122_55)">
<path d="M660 100C748.366 100 820 28.3656 820 -60C820 -148.366 748.366 -220 660 -220C571.634 -220 500 -148.366 500 -60C500 28.3656 571.634 100 660 100Z" fill="#008CFF" fill-opacity="0.4"/>
</g>
<g opacity="0.8" filter="url(#filter1_f_122_55)">
<path d="M20 373C108.366 373 180 301.366 180 213C180 124.634 108.366 53 20 53C-68.3656 53 -140 124.634 -140 213C-140 301.366 -68.3656 373 20 373Z" fill="#008CFF" fill-opacity="0.33"/>
</g>
<g opacity="0.8" filter="url(#filter2_f_122_55)">
</g>
<g opacity="0.8" filter="url(#filter3_f_122_55)">
<path d="M20 573C108.366 573 180 501.366 180 413C180 324.634 108.366 253 20 253C-68.3656 253 -140 324.634 -140 413C-140 501.366 -68.3656 573 20 573Z" fill="#008CFF" fill-opacity="0.22"/>
</g>
<g style="mix-blend-mode:overlay" opacity="0.1">
<path d="M0 50H700" stroke="black" stroke-dasharray="4 4"/>
</g>
<g style="mix-blend-mode:overlay" opacity="0.1">
<path d="M0 82H700" stroke="black" stroke-dasharray="4 4"/>
</g>
<g style="mix-blend-mode:overlay" opacity="0.1">
<path d="M239 0V320" stroke="black" stroke-dasharray="4 4"/>
</g>
<g style="mix-blend-mode:overlay" opacity="0.1">
<path d="M271 0V320" stroke="black" stroke-dasharray="4 4"/>
</g>
<g style="mix-blend-mode:overlay" opacity="0.1">
<path d="M461 0V320" stroke="black" stroke-dasharray="4 4"/>
</g>
<g style="mix-blend-mode:overlay" opacity="0.1">
<path d="M350 0V320" stroke="url(#paint1_linear_122_55)"/>
</g>
<g style="mix-blend-mode:overlay" opacity="0.1">
<path d="M429 0V320" stroke="black" stroke-dasharray="4 4"/>
</g>
<g style="mix-blend-mode:overlay" opacity="0.1">
<path d="M0 271H700" stroke="black" stroke-dasharray="4 4"/>
</g>
<g style="mix-blend-mode:overlay" opacity="0.1">
<path d="M0 239H700" stroke="black" stroke-dasharray="4 4"/>
</g>
<g style="mix-blend-mode:overlay" opacity="0.1">
<path d="M0 160H700" stroke="url(#paint2_linear_122_55)"/>
</g>
<g style="mix-blend-mode:overlay" opacity="0.1">
<path d="M511 -1L189 321" stroke="url(#paint3_linear_122_55)"/>
</g>
<g style="mix-blend-mode:overlay" opacity="0.1">
<path d="M511 321L189 -1" stroke="url(#paint4_linear_122_55)"/>
</g>
<g style="mix-blend-mode:overlay" opacity="0.05">
<path d="M350 271C411.304 271 461 221.304 461 160C461 98.6964 411.304 49 350 49C288.696 49 239 98.6964 239 160C239 221.304 288.696 271 350 271Z" stroke="black"/>
</g>
<g style="mix-blend-mode:overlay" opacity="0.05">
<path d="M350.5 254C402.691 254 445 211.691 445 159.5C445 107.309 402.691 65 350.5 65C298.309 65 256 107.309 256 159.5C256 211.691 298.309 254 350.5 254Z" stroke="black"/>
</g>
</g>
</g>
<defs>
<filter id="filter0_f_122_55" x="260" y="-460" width="800" height="800" filterUnits="userSpaceOnUse" color-interpolation-filters="sRGB">
<feFlood flood-opacity="0" result="BackgroundImageFix"/>
<feBlend mode="normal" in="SourceGraphic" in2="BackgroundImageFix" result="shape"/>
<feGaussianBlur stdDeviation="120" result="effect1_foregroundBlur_122_55"/>
</filter>
<filter id="filter1_f_122_55" x="-380" y="-187" width="800" height="800" filterUnits="userSpaceOnUse" color-interpolation-filters="sRGB">
<feFlood flood-opacity="0" result="BackgroundImageFix"/>
<feBlend mode="normal" in="SourceGraphic" in2="BackgroundImageFix" result="shape"/>
<feGaussianBlur stdDeviation="120" result="effect1_foregroundBlur_122_55"/>
</filter>
<filter id="filter2_f_122_55" x="260" y="80" width="800" height="800" filterUnits="userSpaceOnUse" color-interpolation-filters="sRGB">
<feFlood flood-opacity="0" result="BackgroundImageFix"/>
<feBlend mode="normal" in="SourceGraphic" in2="BackgroundImageFix" result="shape"/>
<feGaussianBlur stdDeviation="120" result="effect1_foregroundBlur_122_55"/>
</filter>
<filter id="filter3_f_122_55" x="-380" y="13" width="800" height="800" filterUnits="userSpaceOnUse" color-interpolation-filters="sRGB">
<feFlood flood-opacity="0" result="BackgroundImageFix"/>
<feBlend mode="normal" in="SourceGraphic" in2="BackgroundImageFix" result="shape"/>
<feGaussianBlur stdDeviation="120" result="effect1_foregroundBlur_122_55"/>
</filter>
<linearGradient id="paint0_linear_122_55" x1="1.27814e-05" y1="320" x2="710.784" y2="26.0793" gradientUnits="userSpaceOnUse">
<stop stop-color="#008CFF" stop-opacity="0.09"/>
<stop offset="0.729167" stop-color="#008CFF" stop-opacity="0.08"/>
</linearGradient>
<linearGradient id="paint1_linear_122_55" x1="nan" y1="nan" x2="nan" y2="nan" gradientUnits="userSpaceOnUse">
<stop stop-opacity="0"/>
<stop offset="0.0001" stop-opacity="0.3"/>
<stop offset="0.333333"/>
<stop offset="0.666667"/>
<stop offset="1" stop-opacity="0.3"/>
</linearGradient>
<linearGradient id="paint2_linear_122_55" x1="nan" y1="nan" x2="nan" y2="nan" gradientUnits="userSpaceOnUse">
<stop stop-opacity="0.1"/>
<stop offset="0.5"/>
<stop offset="1" stop-opacity="0.1"/>
</linearGradient>
<linearGradient id="paint3_linear_122_55" x1="511" y1="-1" x2="189" y2="321" gradientUnits="userSpaceOnUse">
<stop stop-opacity="0.1"/>
<stop offset="0.5"/>
<stop offset="1" stop-opacity="0.1"/>
</linearGradient>
<linearGradient id="paint4_linear_122_55" x1="511" y1="321" x2="189" y2="-1" gradientUnits="userSpaceOnUse">
<stop stop-opacity="0.1"/>
<stop offset="0.5"/>
<stop offset="1" stop-opacity="0.1"/>
</linearGradient>
<clipPath id="clip0_122_55">
<rect width="700" height="320" fill="white"/>
</clipPath>
</defs>
</svg>
